<?xml version="1.0" encoding="utf-8"?>
<!-- Generator: Adobe Illustrator 18.1.1, SVG Export Plug-In . SVG Version: 6.00 Build 0)  -->
<svg version="1.1" id="Calque_1" xmlns:sketch="http://www.bohemiancoding.com/sketch/ns"
	 xmlns="http://www.w3.org/2000/svg" xmlns:xlink="http://www.w3.org/1999/xlink" x="0px" y="0px" viewBox="20.3 519.7 87.2 96.7"
	 enable-background="new 20.3 519.7 87.2 96.7" xml:space="preserve">
<title>logo</title>
<desc>Created with Sketch.</desc>
<g>
	<linearGradient id="SVGID_1_" gradientUnits="userSpaceOnUse" x1="20.3325" y1="546.3037" x2="107.499" y2="546.3037">
		<stop  offset="0" style="stop-color:#FFE0F4"/>
		<stop  offset="0.1292" style="stop-color:#FCD7F0"/>
		<stop  offset="0.3439" style="stop-color:#F2BDE5"/>
		<stop  offset="0.5674" style="stop-color:#E69CD7"/>
		<stop  offset="0.8652" style="stop-color:#FF75BE"/>
		<stop  offset="0.9944" style="stop-color:#E05BA1"/>
	</linearGradient>
	<path fill="url(#SVGID_1_)" d="M22.8,543.4h41.1h1.2v-1.2c0-5.3,2.1-10.3,5.8-14.1s8.8-5.8,14.1-5.8s10.3,2.1,14.1,5.8
		c3.8,3.8,5.8,8.8,5.8,14.1c0,5.3-2.1,10.3-5.8,14.1l-14.9,14.9l1.8,1.8l14.9-14.9c4.2-4.2,6.6-9.9,6.6-15.9c0-6-2.3-11.6-6.6-15.9
		c-4.2-4.2-9.9-6.6-15.9-6.6c-6,0-11.6,2.3-15.9,6.6c-3.9,3.9-6.2,9.1-6.5,14.6H20.3v32h2.5V543.4z"/>
	<linearGradient id="SVGID_2_" gradientUnits="userSpaceOnUse" x1="20.3325" y1="594.0522" x2="106.249" y2="594.0522">
		<stop  offset="0" style="stop-color:#FFE0F4"/>
		<stop  offset="0.1292" style="stop-color:#FCD7F0"/>
		<stop  offset="0.3439" style="stop-color:#F2BDE5"/>
		<stop  offset="0.5674" style="stop-color:#E69CD7"/>
		<stop  offset="0.8652" style="stop-color:#FF75BE"/>
		<stop  offset="0.9944" style="stop-color:#E05BA1"/>
	</linearGradient>
	<path fill="url(#SVGID_2_)" d="M58.6,578.2c-4.2-4.2-9.9-6.6-15.9-6.6v2.5c5.3,0,10.3,2.1,14.1,5.8c3.8,3.8,5.8,8.8,5.8,14.1
		c0,5.3-2.1,10.3-5.8,14.1c-3.8,3.8-8.8,5.8-14.1,5.8c-5.6,0-11-2.4-14.7-6.5c-3.3-3.7-5.2-8.4-5.2-13.4h-2.5
		c0,5.6,2.1,10.9,5.8,15.1c4.2,4.7,10.3,7.3,16.6,7.3c6,0,11.6-2.3,15.9-6.6c3.9-3.9,6.2-9.1,6.5-14.6h41.1v-2.5H65.1
		C64.8,587.3,62.5,582.1,58.6,578.2z"/>
</g>
</svg>
